<svg width="36" height="29" viewBox="0 0 36 29" fill="none" xmlns="http://www.w3.org/2000/svg">
<path d="M17.9998 6.28688L7 16V26.5C7 26.5 6.92441 28.2618 7 28H15V20.7618H15.6631H19.1631H22.6631V25.2618V28H30V16L17.9998 6.28688ZM35.6679 12.9216L30 8.5V2.625C30 2.14156 30 2.5 30 1.75H26.9998C26.4473 1.75 25.9998 2.14156 25.9998 2.625V5.4518L19.6717 0.563829C19.1948 0.188673 18.5973 0.000548071 17.9998 1.19579e-06C17.4023 -0.00054568 16.8061 0.186485 16.3311 0.561642L0.331765 12.9216C-0.0788592 13.2448 -0.113234 13.7977 0.25614 14.1575L1.59364 15.4602C1.96239 15.8195 2.59488 15.8495 3.00613 15.5263L17.3386 4.46414C17.7167 4.17266 18.2836 4.17266 18.6617 4.46414L32.9942 15.5258C33.4048 15.8484 34.0373 15.8189 34.4067 15.4596L35.7442 14.157C36.1129 13.7977 36.0792 13.2442 35.6679 12.9216Z" fill="#FF7200"/>
</svg>
