<svg width="342" height="316" viewBox="0 0 342 316" fill="none" xmlns="http://www.w3.org/2000/svg">
<path d="M52.8246 210.565H19.4055L36.115 262.783H69.5341L52.8246 210.565Z" stroke="#309488" stroke-width="2"/>
<path d="M189.054 1H155.171L172.112 53.2173H205.995L189.054 1Z" stroke="#309488" stroke-width="2"/>
<path d="M171.648 262.783H137.765L154.707 315H188.59L171.648 262.783Z" stroke="#309488" stroke-width="2"/>
<path d="M205.763 262.783H171.88L188.822 315H222.705L205.763 262.783Z" stroke="#309488" stroke-width="2"/>
<path d="M239.879 262.783H205.996L222.937 315H256.82L239.879 262.783Z" stroke="#309488" stroke-width="2"/>
<path d="M189.054 209.869H155.171L172.112 262.783H205.995L189.054 209.869Z" stroke="#309488" stroke-width="2"/>
<path d="M256.588 209.869H222.705L239.647 262.783H273.53L256.588 209.869Z" stroke="#309488" stroke-width="2"/>
<path d="M323.659 209.869H290.24L306.949 262.783H340.368L323.659 209.869Z" stroke="#309488" stroke-width="2"/>
<path d="M204.835 157.652H171.88L188.358 209.869H221.312L204.835 157.652Z" stroke="#309488" stroke-width="2"/>
<path d="M223.169 105.435H189.286L206.228 157.652H240.111L223.169 105.435Z" stroke="#309488" stroke-width="2"/>
<path d="M290.239 105.435H256.82L273.53 157.652H306.949L290.239 105.435Z" stroke="#309488" stroke-width="2"/>
<path d="M171.88 53.2173H138.461L155.171 105.435H188.59L171.88 53.2173Z" stroke="#309488" stroke-width="2"/>
<path d="M121.752 1H88.3325L105.042 53.2173H138.461L121.752 1Z" stroke="#309488" stroke-width="2"/>
<path d="M273.298 157.652H239.415L256.356 209.869H290.239L273.298 157.652Z" stroke="#309488" stroke-width="2"/>
<path d="M306.949 262.783H273.53L290.239 315H323.658L306.949 262.783Z" stroke="#309488" stroke-width="2"/>
<path d="M35.8832 262.783H2L18.9416 315H52.8248L35.8832 262.783Z" stroke="#309488" stroke-width="2"/>
<path d="M104.346 157.652H70.927L87.6365 209.869H121.056L104.346 157.652Z" stroke="#309488" stroke-width="2"/>
<path d="M54.2174 105.435H20.7983L37.5079 157.652H70.9269L54.2174 105.435Z" stroke="#309488" stroke-width="2"/>
<path d="M122.448 105.435H89.0288L105.738 157.652H139.157L122.448 105.435Z" stroke="#309488" stroke-width="2"/>
</svg>
